<svg xmlns="http://www.w3.org/2000/svg" width="138.709" height="138.77" viewBox="0 0 36.7 36.716"><path class="cls-4" d="M25.342 2.289a13.197 13.197 0 018.051 11.08c.1 1.45-.06 2.966-.794 4.22-.732 1.255-2.14 2.18-3.587 2.048-1.133-.106-2.117-.793-3.025-1.481l-10.744-7.938c-.94-.693-1.895-1.405-2.564-2.363-.553-.793-1.148-2.264-.64-3.212.43-.81 1.823-1.431 2.608-1.825a13.454 13.454 0 016.813-1.381 12.486 12.486 0 013.882.852z" fill="#d5e4e3"/><path class="cls-5" d="M12.655 36.703h-.407V35.47c-.183-3.649-1.762-5.175-2.689-5.76-1.119-.704-1.41-.767-2.275-.955-.24-.05-.53-.117-.913-.207l-.497-.119a9.988 9.988 0 01-2.096-.648c-.97-.466-1.645-1.212-1.852-2.045-.206-.834.148-1.76.466-2.55l.135-.342a.934.934 0 00-.087-.83 2.326 2.326 0 00-.149-.191 1.852 1.852 0 01-.225-.312 1.077 1.077 0 01-.015-.993 1.12 1.12 0 01.378-.412 1.01 1.01 0 01-.265-.313c-.195-.367-.164-.738.08-.942.4-.333.735-.642.838-1.058a.746.746 0 000-.389 4.39 4.39 0 01-1.11-.955 1.696 1.696 0 01-.305-1.587c.183-.482.616-.794.963-1.027.286-.198.582-.389.87-.572.794-.51 1.556-.992 2.117-1.706a6.726 6.726 0 00.958-1.971c.106-.294.214-.598.339-.89.616-1.457 1.611-2.7 2.571-3.902 1.077-1.347 3.096-2.617 3.705-2.976C16.232-.013 18.7-.074 21.392.032a15.441 15.441 0 018.363 2.78 13.629 13.629 0 01.95 21.252 29.47 29.47 0 00-3.207 3.207 7.842 7.842 0 00-1.1 8.466l-.366.183a8.255 8.255 0 011.16-8.92 29.964 29.964 0 013.246-3.233 13.216 13.216 0 00-.924-20.608A14.997 14.997 0 0021.376.455C18.2.328 16.1.561 13.406 2.183c-.576.349-2.545 1.587-3.582 2.881-.942 1.177-1.918 2.4-2.51 3.805-.123.283-.228.58-.332.868a7.242 7.242 0 01-1.023 2.09c-.612.767-1.432 1.288-2.226 1.794-.283.182-.576.367-.857.563-.368.265-.685.5-.815.836a1.323 1.323 0 00.249 1.196 4.297 4.297 0 001.077.905.204.204 0 01.082.111 1.177 1.177 0 01.021.675c-.143.563-.622.966-.974 1.26-.1.081-.058.282.021.433a.6.6 0 00.45.305.204.204 0 010 .404.839.839 0 00-.563.392.677.677 0 000 .614 1.476 1.476 0 00.18.243 2.297 2.297 0 01.177.23 1.347 1.347 0 01.127 1.204c-.045.114-.09.23-.138.347-.31.767-.627 1.563-.447 2.299s.77 1.36 1.63 1.773a9.734 9.734 0 002.01.622c.17.04.337.076.504.119.365.087.65.15.902.203.891.193 1.227.265 2.405 1.008 1.058.678 1.852 1.752 2.355 3.197a10.848 10.848 0 01.529 2.91v1.246z" fill="#768c9d"/><path class="cls-5" d="M11.523 15.09a3.373 3.373 0 01-1.37-.292 3.969 3.969 0 01-1.97-2.037.205.205 0 01.376-.164 3.564 3.564 0 001.757 1.828 2.971 2.971 0 002.363.018.206.206 0 01.161.379 3.39 3.39 0 01-1.317.267zM5.403 9.504l-.244-.077c.032-.098.064-.198.098-.294l.241.082zM5.6 8.93l-.24-.09.11-.289.239.095a8.976 8.976 0 00-.109.284zm.225-.564l-.235-.1c.04-.096.082-.191.124-.284l.233.104c-.042.092-.082.187-.122.28zm.249-.556l-.23-.11c.045-.093.092-.186.137-.265l.228.113zm.265-.529l-.225-.121.148-.265.222.127zm.298-.529l-.22-.132.165-.265.217.135zm.326-.513l-.214-.143c.058-.085.116-.172.174-.265l.21.146zm.347-.5l-.207-.151.185-.246.204.156zm.37-.482l-.198-.159c.063-.082.13-.161.195-.24l.196.166-.18.223zm.392-.463l-.194-.17c.07-.076.138-.155.21-.23l.187.173c-.055.071-.124.14-.19.217zm.412-.447L8.3 4.17l.22-.223.177.183c-.058.06-.13.132-.198.206zm.432-.429l-.175-.185c.074-.071.15-.14.227-.209l.17.188zm.452-.404l-.167-.196.236-.199.164.199c-.066.053-.143.119-.22.185zm.468-.387l-.156-.2.246-.189.151.204zm.487-.362l-.145-.21.264-.174.143.212zM24.186 32.853c-.019-.103-.037-.206-.048-.31l.265-.031c0 .098.029.198.047.296zm-.08-.622v-.314h.265c0 .097 0 .2.013.299zm.244-.619h-.265c0-.103 0-.209.019-.312l.264.021c-.01.093-.016.193-.018.305zm.047-.598l-.264-.034c0-.1.029-.206.047-.307l.265.042c-.019.1-.035.199-.048.3zm.103-.592l-.248-.056c.021-.1.047-.204.074-.304l.246.066c-.027.095-.05.196-.071.294zm.154-.585l-.243-.074c.029-.098.063-.199.097-.296l.241.084q-.05.143-.095.286zm.201-.569l-.238-.092c.037-.098.077-.194.119-.289l.235.1a6.429 6.429 0 00-.119.281zm.24-.553l-.23-.111c.046-.093.093-.188.14-.278l.226.117c-.045.09-.093.182-.135.272zm.281-.529l-.222-.127c.05-.087.103-.177.159-.265l.217.133a1.85 1.85 0 00-.148.259zm.315-.53l-.214-.137c.055-.087.114-.172.172-.264l.211.145zm.344-.497l-.206-.15c.058-.082.121-.167.185-.25l.204.157a7.345 7.345 0 00-.183.246zm.37-.484l-.2-.159.195-.24.196.164c-.064.082-.13.158-.19.238zm.39-.465l-.194-.17.207-.23.19.172c-.069.087-.137.153-.204.23zm.41-.453l-.188-.175c.071-.074.14-.148.214-.222l.183.177-.21.223zm.423-.44l-.183-.179.22-.217.177.183zm.434-.425l-.178-.185.056-.053.17-.159.174.185-.167.159zm.444-.42l-.172-.189.225-.206.172.188zm.453-.414l-.172-.19.227-.206.172.19zm.455-.41l-.172-.19.23-.207.17.191zm.455-.41l-.17-.19.228-.207.172.19zm.455-.412l-.18-.196.225-.207.175.188zm.452-.419l-.174-.187.222-.21.177.186zm.445-.426l-.177-.182.217-.214.18.18zM11.158 34.226l-.072-.296.249-.063.071.299zm-.149-.592l-.082-.291.244-.074c.029.095.055.193.085.299zm-.174-.582a5.865 5.865 0 00-.098-.283l.238-.09q.056.142.103.293zm-.21-.564a3.553 3.553 0 00-.124-.264l.23-.112c.046.093.088.19.13.286zm-.264-.53l-.153-.264.214-.137c.056.084.111.177.161.264zm-.323-.502a3.907 3.907 0 00-.185-.23l.19-.167a3.12 3.12 0 01.202.246zm-.389-.444a3.092 3.092 0 00-.222-.196l.162-.199a3.022 3.022 0 01.238.212zm-.457-.376a2.056 2.056 0 00-.265-.161l.132-.22c.093.056.18.114.265.172zm-.51-.31c-.088-.045-.178-.09-.266-.132l.106-.233c.098.045.193.093.283.14zm-.549-.264l-.28-.111.09-.238.288.113zm-.566-.212a6.112 6.112 0 00-.288-.095l.077-.244.293.096zm-.58-.188l-.293-.09.074-.243.294.09z" fill="#768c9d"/></svg>