<svg xmlns="http://www.w3.org/2000/svg" width="124.721" height="33mm" viewBox="0 0 32.999 33"><path class="cls-4" d="M29.993 15.584a4.045 4.045 0 00-1.193-.622 3.482 3.482 0 00.122-3.373 3.969 3.969 0 00-2.754-2.027 4.498 4.498 0 00-2.871.437 3.78 3.78 0 00-.347-2.61 4.778 4.778 0 00-2.24-2.055 7.265 7.265 0 00-6.205.265 4.778 4.778 0 00-2.151 2.503 2.199 2.199 0 00-.455.05A2.593 2.593 0 0010.84 6.71a4.061 4.061 0 00-1.807-.651 5.173 5.173 0 00-2.995.452 4.008 4.008 0 00-2.021 2.25 3.328 3.328 0 00.328 2.854 3.577 3.577 0 00-2.927.57A3.487 3.487 0 000 15.033a3.355 3.355 0 001.588 2.751c.095.056.196.106.296.154a3.397 3.397 0 002.646 5.313h.127a2.032 2.032 0 001.609-.67 2.998 2.998 0 001.323 2.313 3.516 3.516 0 001.952.566 3.754 3.754 0 00.95-.12 3.254 3.254 0 001.62-.928 2.506 2.506 0 00.513-.868 3.773 3.773 0 001.322 1.903 3.336 3.336 0 001.972.653 3.098 3.098 0 00.852-.122.167.167 0 00.063.048 7.17 7.17 0 014.035 3.786l.032.074a1.828 1.828 0 00.494.757 1 1 0 00.614.201 1.074 1.074 0 00.664-.227 1.68 1.68 0 00.53-1.011c.023-.109.042-.217.06-.326a4.122 4.122 0 01.135-.592 3.91 3.91 0 001.723.378h.156a3.826 3.826 0 001.945-.566 3.05 3.05 0 00.952-4.112l-.024-.026.114-.069a2.056 2.056 0 00.847-2.021c0-.035-.013-.067-.021-.1a.183.183 0 00.052 0h.024a2.723 2.723 0 001.646-.967 3.474 3.474 0 00.738-1.746 4.199 4.199 0 00-1.556-3.876zm-7 13.652c-.019.104-.035.21-.059.313a1.378 1.378 0 01-.426.828.746.746 0 01-.889.026 1.543 1.543 0 01-.397-.632l-.034-.077a7.496 7.496 0 00-3.969-3.863 2.863 2.863 0 001.387-1.415 2.704 2.704 0 00.431.886 3.252 3.252 0 001.96 1.21 3.344 3.344 0 00.64.063c.096 0 .186 0 .265-.013v.015a2.606 2.606 0 001.21 1.935l.047.029a3.91 3.91 0 00-.166.695z" fill="#d5e4e3"/><path class="cls-5" d="M29.993 15.584a4.045 4.045 0 00-1.193-.622 3.482 3.482 0 00.122-3.373 3.969 3.969 0 00-2.754-2.027 4.498 4.498 0 00-2.871.437 3.78 3.78 0 00-.347-2.61 4.778 4.778 0 00-2.24-2.055 7.265 7.265 0 00-6.205.265 4.778 4.778 0 00-2.151 2.503 2.199 2.199 0 00-.455.05A2.593 2.593 0 0010.84 6.71a4.061 4.061 0 00-1.807-.651 5.173 5.173 0 00-2.995.452 4.008 4.008 0 00-2.021 2.25 3.328 3.328 0 00.328 2.854 3.577 3.577 0 00-2.927.57A3.487 3.487 0 000 15.033a3.355 3.355 0 001.588 2.751c.095.056.196.106.296.154a3.397 3.397 0 002.646 5.313h.127a2.032 2.032 0 001.609-.67 2.998 2.998 0 001.323 2.313 3.516 3.516 0 001.952.566 3.768 3.768 0 00.95-.12 3.254 3.254 0 001.62-.928 2.442 2.442 0 00.513-.868 3.773 3.773 0 001.322 1.903 3.336 3.336 0 001.972.653 3.098 3.098 0 00.852-.122.167.167 0 00.063.048 7.17 7.17 0 014.035 3.786l.032.074a1.828 1.828 0 00.494.757 1 1 0 00.614.201 1.074 1.074 0 00.664-.227 1.68 1.68 0 00.53-1.011c.023-.109.042-.217.06-.326a4.122 4.122 0 01.135-.592 3.91 3.91 0 001.723.378h.156a3.826 3.826 0 001.945-.566 3.045 3.045 0 00.952-4.112.114.114 0 00-.024-.026l.114-.069a2.056 2.056 0 00.847-2.021c0-.035-.013-.067-.021-.1a.183.183 0 00.052 0h.024a2.723 2.723 0 001.646-.967 3.474 3.474 0 00.738-1.746 4.199 4.199 0 00-1.556-3.876zm-7 13.652c-.019.104-.035.21-.059.313a1.378 1.378 0 01-.426.828.746.746 0 01-.889.026 1.543 1.543 0 01-.397-.632l-.034-.077a7.504 7.504 0 00-3.969-3.863 2.863 2.863 0 001.387-1.415 2.704 2.704 0 00.431.886 3.252 3.252 0 001.96 1.21 3.344 3.344 0 00.64.063c.096 0 .186 0 .265-.013v.015a2.606 2.606 0 001.21 1.935l.047.029a4.154 4.154 0 00-.166.695zm8.286-9.805a3.19 3.19 0 01-.67 1.588 2.381 2.381 0 01-1.449.854.153.153 0 00-.098.056 2.365 2.365 0 00-1.275-1.374 2.066 2.066 0 00-.098-1.902.156.156 0 00-.217-.05.159.159 0 00-.053.217 1.685 1.685 0 01-1.987 2.476.159.159 0 10-.1.3 1.886 1.886 0 00.619.1 2.064 2.064 0 001.587-.741 1.482 1.482 0 00.095-.13l.03.022a2.04 2.04 0 011.182 1.484 1.762 1.762 0 01-.712 1.709 1.537 1.537 0 01-1.796-.08.159.159 0 10-.204.241 1.78 1.78 0 001.148.405 1.945 1.945 0 00.649-.114.146.146 0 00.018.067 2.73 2.73 0 01-.854 3.685 3.469 3.469 0 01-1.781.514 3.511 3.511 0 01-2.024-.508 2.318 2.318 0 01-1.059-1.696.087.087 0 000-.035 2.41 2.41 0 001.117-.529c.67-.59.86-1.627.42-2.312a.157.157 0 10-.264.169c.357.56.193 1.415-.365 1.905a2.413 2.413 0 01-2.064.452 2.926 2.926 0 01-1.77-1.087 2.32 2.32 0 01-.391-1.984.159.159 0 00-.305-.088 2.323 2.323 0 00-.087.545.085.085 0 000 .024 2.521 2.521 0 01-1.664 2.037 2.926 2.926 0 01-2.646-.447 3.57 3.57 0 01-1.357-2.394.17.17 0 00-.037-.08v-.076a.159.159 0 00-.172-.143.159.159 0 00-.143.172 2.061 2.061 0 01-.55 1.529 2.958 2.958 0 01-1.466.836 3.347 3.347 0 01-2.646-.405 2.667 2.667 0 01-1.199-2.18 2.3 2.3 0 00.508.058 3.23 3.23 0 001.678-.529.159.159 0 00.047-.217.156.156 0 00-.217-.05 2.91 2.91 0 01-1.51.487 1.8 1.8 0 01-1.382-.598 1.289 1.289 0 01-.174-1.405.159.159 0 00-.278-.154 1.587 1.587 0 00.21 1.763 1.902 1.902 0 00.623.478c-.317.53-1.002.68-1.547.654a3.085 3.085 0 01-2.355-4.879 3.196 3.196 0 001.032.17 3.109 3.109 0 001.54-.4.156.156 0 00-.156-.265 2.873 2.873 0 01-2.853-.042 3.032 3.032 0 01-1.439-2.487 3.175 3.175 0 011.289-2.585 3.254 3.254 0 012.886-.458.156.156 0 00.199-.1.153.153 0 000-.127.156.156 0 000-.199 2.974 2.974 0 01-.373-2.693A3.683 3.683 0 016.22 6.813a4.884 4.884 0 012.812-.42 3.784 3.784 0 011.67.597 2.286 2.286 0 01.923 1.268 2.305 2.305 0 00-.49.248 2.273 2.273 0 00-.978 1.852.161.161 0 00.158.16.159.159 0 00.16-.16 1.926 1.926 0 013.799-.436.159.159 0 00.187.119.161.161 0 00.12-.19 2.283 2.283 0 00-1.371-1.588 2.188 2.188 0 00-.495-.124 4.482 4.482 0 011.98-2.252 6.97 6.97 0 015.915-.249 4.442 4.442 0 012.09 1.916 3.384 3.384 0 01.228 2.688l-.082.053a2.519 2.519 0 00-2.855.434.159.159 0 00.222.225 2.148 2.148 0 013.617 1.923.156.156 0 00.127.183h.03a.156.156 0 00.153-.127 2.521 2.521 0 00-.984-2.448.17.17 0 00.026-.034 4.233 4.233 0 012.958-.566 3.646 3.646 0 012.532 1.852 3.156 3.156 0 01-.124 3.088.185.185 0 00-.021.053 4.199 4.199 0 00-2.673.214.159.159 0 00-.082.209.156.156 0 00.21.08 3.834 3.834 0 015.328 4.05z" fill="#768c9d"/><path class="cls-5" d="M12.147 13.912a1.83 1.83 0 01.302 1.881.161.161 0 00.082.209.164.164 0 00.06 0 .153.153 0 00.146-.095A2.09 2.09 0 108.75 14.76a.159.159 0 00.132.18.156.156 0 00.18-.132 1.775 1.775 0 013.085-.908zM21.656 16.753a.156.156 0 00-.137.175.159.159 0 00.174.14 2.566 2.566 0 012.326 1 2.381 2.381 0 01.183 2.5 2.267 2.267 0 01-2.194 1.165.159.159 0 00-.174.14.159.159 0 00.14.175 2.058 2.058 0 00.264 0 2.609 2.609 0 002.25-1.342 2.717 2.717 0 00-.204-2.836 2.857 2.857 0 00-2.628-1.117zM21.228 19.77a.156.156 0 00-.222 0 2.212 2.212 0 01-3.641-2.34 2.426 2.426 0 001.058.247 2.302 2.302 0 00.572-.072c.664-.169 1.354-.759 1.323-1.524a.156.156 0 00-.162-.153.159.159 0 00-.153.164c.02.598-.545 1.058-1.088 1.206a2.056 2.056 0 01-2.55-2.233.157.157 0 10-.312-.037 2.397 2.397 0 00.793 2.061 2.278 2.278 0 00.241.18 2.582 2.582 0 00-.018 1.837l.16.346a2.57 2.57 0 001.853 1.262 2.466 2.466 0 00.341.024 2.596 2.596 0 001.813-.746.159.159 0 00-.008-.222zM14.034 20.18a.156.156 0 00-.241-.117 2.117 2.117 0 01-2.445-.058 1.008 1.008 0 01-.434-.635.159.159 0 10-.315.035 1.307 1.307 0 00.561.852 2.225 2.225 0 00.307.195 2.429 2.429 0 002.5-.124.159.159 0 00.067-.148zM14.886 12.573a.159.159 0 00.22-.045 2.236 2.236 0 014.055 1.677.156.156 0 00.122.186h.032a.159.159 0 00.156-.125 2.553 2.553 0 00-4.63-1.915.161.161 0 00.045.222zM9.872 5.485l-.294-.087.072-.247.293.088zm-.588-.17c-.103-.026-.198-.052-.293-.074l.06-.248.3.076zm-.59-.142l-.296-.056.045-.251c.098.016.201.037.304.058zm-.592-.1l-.3-.033.02-.264.312.031zm-.598-.046h-.3v-.264h.316zm-.595.027c-.101 0-.199.026-.294.045l-.05-.265a3.114 3.114 0 01.314-.048zm-.583.11a3.86 3.86 0 00-.28.093l-.09-.238c.1-.037.201-.071.302-.1zm-.555.21c-.087.04-.177.084-.265.132l-.124-.222c.095-.053.188-.1.283-.143zm-.53.285c-.081.05-.166.106-.264.164l-.145-.209c.087-.06.174-.119.264-.172zm-.491.344a6.706 6.706 0 00-.239.188l-.161-.198a7.02 7.02 0 01.243-.193zm-.471.384c-.077.066-.154.132-.228.201l-.172-.19.233-.204zm-.453.408L3.601 7l-.174-.185.225-.212zM32.443 20.958l.067-.3.248.056c-.02.1-.042.201-.066.3zm.127-.596c.022-.105.04-.203.056-.299l.265.043a8.417 8.417 0 01-.056.304zm.104-.598c0-.103.026-.203.037-.301l.264.026c0 .1-.024.204-.037.31zm.06-.6v-.3H33v.316zm0-.6c0-.101 0-.202-.023-.297l.264-.03c0 .104.022.207.024.316zm-.066-.593a3.286 3.286 0 00-.066-.289l.25-.066c.026.1.05.204.068.31zm-.153-.572a2.136 2.136 0 00-.111-.265l.233-.103a3.1 3.1 0 01.119.294zm-.243-.53c-.045-.084-.098-.171-.151-.264l.214-.137c.058.09.111.182.161.264zm-.32-.502q-.088-.119-.183-.238l.198-.161c.066.082.133.166.19.248zm-.376-.47l-.204-.223.185-.175c.074.077.143.156.21.23zm-.416-.443l-.217-.214.178-.183.222.217zm-.436-.423l-.222-.212.174-.185.222.212z" fill="#768c9d"/></svg>