<svg xmlns="http://www.w3.org/2000/svg" width="122.53" height="122.457" viewBox="0 0 32.419 32.4"><path class="cls-4" d="M30.84 10.78v-.067c0-4.212-3.046-8.067-7.625-8.067-3.641 0-5.75 2.614-6.47 5.061-.72-2.447-2.83-5.061-6.469-5.061-4.58 0-7.625 3.855-7.625 8.067a.553.553 0 000 .066c-.026.916 0 10.24 14.087 17.838C30.842 21.018 30.864 11.695 30.84 10.78z" fill="#d5e4e3"/><path class="cls-6" d="M29.4 11.843v-.07c0-4.209-3.045-8.066-7.625-8.066-3.638 0-5.75 2.616-6.469 5.064h0c-.72-2.448-2.83-5.064-6.469-5.064-4.58 0-7.625 3.857-7.625 8.067v.069c-.027.915 0 10.24 14.086 17.838h0C29.403 22.082 29.424 12.758 29.4 11.843z" fill="none" stroke="#768c9d" stroke-width=".672" stroke-linecap="round" stroke-linejoin="round"/><path class="cls-5" d="M2.971 20.659l-.203.156a8.624 8.624 0 01-.186-.249l.207-.15c.058.092.119.174.182.243zm-.36-.49l-.211.146c-.058-.085-.117-.17-.172-.265l.211-.14zm-.336-.508l-.217.138a8.793 8.793 0 01-.16-.265l.216-.13c.053.096.106.196.161.268zm-.314-.529l-.223.124c-.05-.087-.1-.18-.148-.264l.225-.122zm-.289-.53l-.227.117-.138-.264.23-.111zm-.264-.544l-.23.106-.128-.286.236-.1c.04.108.082.2.122.293zm-.239-.561l-.235.095c-.04-.095-.077-.193-.114-.288l.241-.09c.034.108.071.203.108.296zm-.211-.569l-.244.085c-.031-.098-.066-.196-.098-.294l.244-.08c.032.112.063.207.098.315zm-.188-.577l-.246.072c-.03-.098-.058-.199-.085-.297l.246-.069c.027.104.056.21.08.307zm-.161-.587l-.247.063q-.04-.15-.071-.301l.249-.058c.02.113.045.211.069.31zm-.133-.593l-.264.05c-.019-.1-.04-.203-.056-.304l.265-.045c.016.111.037.212.055.312zm-.106-.598l-.264.037a5.703 5.703 0 01-.043-.307l.252-.032c.026.114.042.215.055.315zm-.076-.603l-.265.026c0-.1-.018-.206-.029-.306l.265-.022c.01.111.018.215.029.315zM30.258 4.87q.114.107.222.223l-.185.175a3.974 3.974 0 00-.212-.21zm.434.453c.066.08.135.162.198.244l-.204.156a8.063 8.063 0 00-.187-.233zm.172.643l.209-.145c.06.084.116.172.172.264l-.217.135c-.053-.087-.1-.172-.164-.254zm.317.511l.222-.124c.053.09.1.182.149.264l-.23.114a3.238 3.238 0 01-.13-.254zm.265.53l.233-.104c.042.093.084.19.121.286l-.235.095q-.05-.12-.109-.27zm.225.56l.24-.087c.035.098.066.198.098.296l-.243.077c-.027-.088-.045-.185-.09-.278zm.177.577l.249-.069c.026.1.05.201.074.304l-.249.056a4.33 4.33 0 00-.069-.283zm.137.608l.25-.047c.02.1.039.204.055.307l-.265.04c0-.114-.016-.215-.04-.3zm.093.598l.265-.031c0 .103.023.206.031.31l-.264.023c-.003-.106-.016-.217-.027-.315zm.056.604l.264-.016c0 .1 0 .206.016.31h-.264a5.44 5.44 0 00-.011-.308zm.02.605h.265v.31h-.264c.005-.122.005-.225.005-.323zm0 .609h.265l-.015.31-.265-.016c.003-.106.008-.207.01-.307zm-.034.606l.265.021c0 .103-.018.204-.029.307l-.265-.024c.005-.114.016-.217.024-.317zm-.06.606l.264.029c0 .103-.024.206-.037.307l-.264-.032c.008-.116.02-.228.031-.317zm-.075.606l.265.037-.048.304-.264-.04c.008-.113.024-.214.047-.301zm-.095.603l.265.042v.074c0 .077-.027.154-.043.23l-.25-.047c.015-.074.028-.15.039-.228zm-.106.6l.265.048c-.021.1-.04.201-.058.302l-.265-.048c.008-.114.027-.214.048-.315z" fill="#768c9d"/></svg>