<svg xmlns="http://www.w3.org/2000/svg" width="134.929" height="135.087" viewBox="0 0 35.7 35.742"><path class="cls-4" d="M24.893 28.096c-.233.508-.344 2.083-.397 3.781-.061 1.879.35 1.736-.447 2.32-1.982 1.464-6.17 1.914-8.486.318-.418-.286-.907-.42-.907-1.894 0-.228.021-.53.032-.98.042-1.804 0-3.47-.286-3.873-.841-1.14-1.693-1.852-2.675-2.971-1.431-1.627-2.408-4.162-3.363-5.556-.828-1.215-1.942-1.81-2.053-2.405-.167-.892.444-1.374 1.35-1.419.904-.045 1.608.464 2.38 1.022 1.371 1.003 2.818 3.44 3.29 3.625.47.185.142-4.604-.024-6.395-.14-1.503-.583-2.964-.908-4.437-.307-1.376-.53-2.358-.868-3.728-.135-.55-.878-2.443.167-2.91 1.045-.47 1.545.102 1.87.973.215.571 1.059 2.688 1.323 3.688a35.454 35.454 0 001.204 3.927c.357.91.585 1.555.966 1.457.577-.148.418-.957.347-1.55-.3-2.445-.482-8.75-.477-9.414 0-1.058.95-1.902 1.937-1.164.648.487.667 2.775.699 3.037a76.2 76.2 0 01.65 8.732.53.53 0 00.89.41c.658-.932 1.463-6.3 2.026-8.679.265-1.116.455-2.042 1.617-1.76 1.016.25.939 1.461.823 2.305-.188 1.392-1.255 7.673-1.453 8.92-.156.978-.08 1.7.479 1.476.265-.114 1.923-6.501 2.762-6.94a.934.934 0 011.392.947 33.8 33.8 0 01-.839 3.704 31.086 31.086 0 00-.81 4.04c-.113.762-.333 8.827-1.103 10.017-.566.845-1.008 1.16-1.108 1.376z" fill="#d5e4e3"/><path class="cls-5" d="M23.938 27.983c-.265.608-.286 1.336-.336 1.987a21.841 21.841 0 00-.088 2.82c.013.288.154.74-.05.974a4.048 4.048 0 01-1.471.891 9.017 9.017 0 01-4.617.559 6.059 6.059 0 01-2.117-.675c-.37-.206-.833-.447-1-.865-.296-.746-.119-1.699-.106-2.48a18.33 18.33 0 00-.09-2.722 2.246 2.246 0 00-.185-.733 5.435 5.435 0 00-.775-.981c-.627-.712-1.323-1.363-1.945-2.072-1.156-1.323-1.878-2.937-2.71-4.458A9.308 9.308 0 007.1 18.27c-.264-.278-.547-.53-.822-.794a1.736 1.736 0 01-.508-.65c-.265-.853.656-1.215 1.322-1.181.87.045 1.718.683 2.347 1.238a13.084 13.084 0 011.524 1.699 16.163 16.163 0 001.167 1.45c.201.198.51.413.712.087.164-.264.148-.688.159-.99a34.192 34.192 0 00-.12-3.717 58.84 58.84 0 00-.132-1.667 21.026 21.026 0 00-.529-2.976c-.442-1.829-.775-3.704-1.296-5.506a5.374 5.374 0 01-.323-1.678.863.863 0 01.344-.748 1.042 1.042 0 011.024-.077c.497.29.656 1.005.852 1.51.264.665.513 1.324.746 2.006.569 1.638.9 3.344 1.532 4.966a7.556 7.556 0 00.529 1.194.775.775 0 00.53.434c.706.074.793-.794.758-1.289-.108-1.196-.232-2.381-.301-3.582q-.111-2.027-.177-4.06c-.016-.51-.032-1.018-.045-1.528a6.646 6.646 0 010-.89c.082-.777.926-1.478 1.61-.793.366.37.419 1.116.472 1.6.053.485.058.942.116 1.41.122.982.233 1.964.323 2.948.148 1.588.238 3.175.283 4.763.016.563-.106 1.413.617 1.587.476.109.735-.227.9-.614.441-1.058.632-2.24.86-3.36.282-1.389.528-2.783.82-4.17a11.255 11.255 0 01.468-1.865.87.87 0 01.545-.6 1.021 1.021 0 01.981.312c.376.476.265 1.246.185 1.799-.055.397-.119.794-.182 1.19q-.294 1.853-.606 3.705-.265 1.682-.558 3.365a8.006 8.006 0 00-.178 1.48c0 .46.23 1.147.837.883.211-.093.264-.357.354-.558.143-.379.265-.765.389-1.149.355-1.092.696-2.188 1.09-3.267a14.534 14.534 0 01.553-1.347c.14-.28.28-.611.566-.699a.704.704 0 01.91.577 2.437 2.437 0 01-.092.794 42.505 42.505 0 01-.617 2.646 31.22 31.22 0 00-.944 4.614c-.08.736-.093 1.48-.135 2.217a127.206 127.206 0 01-.246 3.62 24.455 24.455 0 01-.41 3.175 2.778 2.778 0 01-.265.794 5.614 5.614 0 01-.72.936 2.471 2.471 0 00-.388.476c-.135.265.264.487.388.228a3.072 3.072 0 01.442-.53 5.527 5.527 0 00.68-.912 3.408 3.408 0 00.305-.937 26.16 26.16 0 00.415-3.24c.106-1.226.18-2.456.251-3.684.04-.727.05-1.463.133-2.188v-.066c0-.066.029-.196.045-.294.026-.185.055-.37.084-.555.067-.402.135-.794.217-1.207.201-1.01.487-2 .738-3 .196-.794.39-1.57.53-2.365.098-.617-.048-1.268-.69-1.522-1.06-.418-1.512.656-1.83 1.416-.446 1.058-.793 2.156-1.148 3.246-.264.794-.515 1.588-.793 2.352-.021.058-.037.04-.016.032.082-.027-.061-.016-.072-.027a.376.376 0 01-.068-.15 2.778 2.778 0 01.034-1.125c.06-.378.124-.754.188-1.132.4-2.4.815-4.797 1.18-7.202.145-.953.463-2.477-.62-3.009a1.3 1.3 0 00-1.626.265c-.387.508-.485 1.233-.622 1.852-.304 1.363-.545 2.739-.815 4.11a25.315 25.315 0 01-.89 3.722 1.381 1.381 0 01-.205.452c-.212.225-.463-.024-.49-.264-.048-.4-.021-.82-.034-1.223a75.063 75.063 0 00-.495-6.48 45.93 45.93 0 01-.175-1.806 6.543 6.543 0 00-.32-1.781A1.394 1.394 0 0017.301 0c-.7.024-1.203.64-1.322 1.289a4.905 4.905 0 00-.03 1.024c0 .494.027.987.043 1.481.048 1.387.103 2.773.18 4.157.069 1.228.209 2.442.307 3.667.016.177.069.863-.28.794-.12-.024-.21-.265-.265-.35-.109-.214-.193-.436-.28-.658a29.677 29.677 0 01-.927-2.763c-.23-.793-.415-1.616-.688-2.407-.238-.69-.5-1.373-.762-2.053-.206-.53-.367-1.128-.756-1.556a1.416 1.416 0 00-1.768-.199c-1.08.604-.455 2.207-.217 3.104.53 1.953.929 3.94 1.384 5.908a27.432 27.432 0 01.566 4.554c.072 1.17.186 2.38.053 3.564a1.603 1.603 0 01-.074.34l.12-.055c.07-.042.063.07 0-.016a1.339 1.339 0 00-.197-.19c-.45-.484-.828-1.037-1.24-1.556a10.515 10.515 0 00-1.604-1.704c-.64-.51-1.376-1.045-2.206-1.161-.649-.09-1.477.05-1.853.643a1.339 1.339 0 00.149 1.587c.529.622 1.185 1.1 1.67 1.762a15.8 15.8 0 011.169 2.022c.42.793.838 1.603 1.323 2.365a13.74 13.74 0 001.735 2.156c.331.347.667.688.992 1.04a6.633 6.633 0 01.934 1.122 2.074 2.074 0 01.183.794c.042.42.056.844.063 1.267.016.971-.084 1.955-.037 2.926.03.559.143 1.146.598 1.517 1.04.852 2.413 1.22 3.731 1.304a9.324 9.324 0 004.469-.794 3.993 3.993 0 001.357-.905c.244-.288.177-.65.154-1a19.844 19.844 0 01.04-2.6c.028-.443.06-.887.116-1.324a3.44 3.44 0 01.188-.891c.121-.26-.268-.49-.381-.222z" fill="#768c9d"/><path class="cls-5" d="M12.076 33.07c.027-.095.05-.193.072-.29l.251.055c-.024.1-.05.204-.077.304zm.13-.584c.016-.098.029-.199.04-.3l.264.03c0 .103-.026.209-.042.31zm.077-.897h.264c0 .103 0 .209-.013.312l-.265-.016c.008-.095.014-.196.014-.296zm-.022-.6l.265-.022c0 .103.016.209.018.312h-.264c-.005-.09-.01-.193-.019-.29zm-.074-.599l.265-.042c.018.1.032.206.045.307l-.265.032c-.013-.098-.029-.199-.045-.297zm-.124-.592l.249-.061c.026.1.05.203.068.304l-.248.053c-.024-.098-.043-.199-.069-.296zm-.167-.58l.244-.08c.031.099.063.2.09.297l-.244.071c-.029-.095-.058-.193-.09-.288zm-.211-.566l.238-.098c.04.098.076.193.113.291l-.24.087a6.127 6.127 0 00-.111-.28zm-.25-.553l.231-.111c.045.092.09.188.132.28l-.232.106-.13-.275zm-.28-.53l.223-.124c.053.09.1.183.148.265l-.225.12zm-.31-.528l.218-.135c.055.087.108.177.161.264l-.22.13zm-.335-.506l.212-.145.171.264-.211.143c-.058-.095-.114-.18-.162-.262zm-.355-.494l.204-.154.183.249-.207.15zm-.375-.482l.2-.159.191.241-.2.156zm-.387-.471l.193-.164.199.235-.196.164zm-.248-.288l-.151-.175.19-.17c.05.061.103.12.154.178l.05.056-.193.166zm-.561-.63l.19-.172.207.23-.191.17zM28.393 18.643h-.264v-.312h.264zm0-.609h-.264c0-.1 0-.206.013-.31l.264.017c0 .092-.005.193-.008.293zm.035-.606l-.265-.018c0-.103.018-.207.029-.31l.265.027-.024.301zm.06-.603l-.264-.032c0-.103.026-.206.042-.307l.251.037zm.09-.603l-.264-.042c.018-.101.037-.204.058-.305l.265.05a9.956 9.956 0 00-.053.297zm.117-.595l-.249-.056c.021-.098.045-.201.069-.302l.249.061c-.019.098-.043.199-.064.297zm.143-.59l-.246-.067c.026-.1.055-.2.084-.299l.244.072c-.021.098-.05.196-.077.293zm.172-.583l-.244-.079c.032-.098.064-.196.098-.294l.24.085zm.198-.576l-.24-.088c.034-.098.07-.193.11-.288l.239.093c-.032.092-.07.19-.104.283zm.222-.564l-.235-.1c.04-.096.082-.191.124-.284l.233.104c-.037.092-.077.187-.116.28zm.25-.556l-.231-.108c.042-.095.09-.188.135-.278l.23.114c-.042.095-.087.182-.13.272zm.264-.542l-.225-.119a3.61 3.61 0 01.15-.265l.223.127zm.299-.53l-.22-.129c.053-.09.109-.18.161-.264l.217.135zm.322-.512l-.211-.143c.055-.085.116-.172.174-.265l.21.148c-.046.08-.11.175-.16.26zm.347-.5l-.206-.151.188-.249.2.156z" fill="#768c9d"/></svg>