<svg xmlns="http://www.w3.org/2000/svg" width="12.31" height="12.31" viewBox="0 0 12.31 12.31" overflow="visible"><path vector-effect="non-scaling-stroke" d="M11.75 11.19h-5.6c-2.78 0-5.03-2.26-5.03-5.03 0-1.42.61-2.79 1.67-3.74A4.914 4.914 0 0 1 6.7 1.15c2.23.23 4.09 2.01 4.43 4.21.12.81.06 1.6-.19 2.36-.13.39-.53.67-.96.67-.56 0-1.02-.46-1.02-1.02V3.92a.56.56 0 1 0-1.12 0v.01c-.48-.36-1.05-.57-1.69-.57-1.54 0-2.8 1.25-2.8 2.8s1.25 2.8 2.8 2.8c.72 0 1.37-.28 1.86-.72a2.17 2.17 0 0 0 1.96 1.27c.93 0 1.74-.58 2.03-1.44.3-.93.38-1.9.23-2.88C11.81 2.49 9.54.32 6.81.03 5.07-.15 3.33.42 2.04 1.58A6.148 6.148 0 0 0 0 6.15c0 3.39 2.76 6.15 6.15 6.15h5.59c.31 0 .56-.25.56-.56.01-.3-.24-.55-.55-.55zm-5.6-3.36c-.93 0-1.68-.75-1.68-1.68s.75-1.68 1.68-1.68 1.68.75 1.68 1.68-.75 1.68-1.68 1.68z" /></svg>