<svg xmlns="http://www.w3.org/2000/svg" width="896.98" height="802.09" viewBox="0 0 896.98 802.09" overflow="visible"><path d="M740.57 12.62c116.91 75.11 142.72 188.69 141.36 262.17-.77 41.3-7.48 84.17-26.27 123.88-33.87 71.57-106.21 126.19-180.69 143.34-74.48 17.15-149.33-1.11-204.19-42.67-34.68-26.28-62.77-63.32-68.19-109.06s16.11-100.54 58.57-127.85c44.9-28.89 102.27-19.79 135.01 12.44 32.73 32.23 43.88 82.68 41.58 132.62-2.17 47.15-16.96 98.34-52.57 134.74-59.74 61.07-151.53 58.41-225.18 41.61-73.64-16.81-151.73-41.98-228.13-9.48C47.52 610.23-6.04 719.6 22.93 796.82" fill="none" stroke="currentColor" vector-effect="non-scaling-stroke"/></svg>