<svg xmlns="http://www.w3.org/2000/svg" width="14.36" height="14.37" viewBox="0 0 14.36 14.37" overflow="visible"><path d="M11.39 8.67c-.64-.68-1.65-.71-2.35 0l-.8.8c-.02-.01-.05-.02-.09-.05-.06-.02-.11-.05-.16-.08l-.1-.05c-.83-.52-1.6-1.22-2.35-2.14-.31-.4-.53-.72-.69-1.04.19-.18.38-.37.56-.55l.25-.26c.35-.34.54-.76.54-1.18 0-.43-.18-.83-.54-1.19l-.79-.81c-.09-.09-.18-.18-.26-.27-.17-.19-.37-.39-.55-.55-.66-.66-1.62-.67-2.33 0L.72 2.31c-.42.42-.66.93-.71 1.51-.06.87.17 1.67.39 2.28.48 1.31 1.2 2.52 2.28 3.82 1.3 1.55 2.87 2.78 4.67 3.66.62.31 1.58.72 2.69.79h.19c.74 0 1.38-.28 1.89-.84.13-.16.29-.32.48-.49.14-.11.27-.24.42-.4.68-.7.68-1.67-.01-2.35l-1.62-1.62zM3.77 5.39c-.25.24-.32.54-.22.89l.01.08.04.04c.21.5.52 1 .97 1.55.83 1.02 1.7 1.81 2.66 2.42.09.05.17.1.26.15l.13.07c.06.02.11.05.16.08.04.02.07.04.11.06l.05.05h.05c.37.16.68.07.95-.2l1.01-1.01c.07-.07.18-.14.27-.14.09 0 .18.08.26.14l1.62 1.62c.15.15.25.32-.04.61a1.7 1.7 0 0 1-.23.24l-.2.2c-.16.16-.32.32-.46.49-.24.27-.52.38-.92.38h-.12c-.87-.08-1.68-.42-2.21-.67-1.63-.79-3.05-1.91-4.24-3.33C2.7 7.94 2.04 6.84 1.6 5.66c-.26-.67-.36-1.22-.31-1.72.02-.27.13-.5.33-.72l1-1c.07-.07.17-.14.27-.14.11 0 .21.08.28.15.12.11.22.22.33.33l1.26 1.26c.11.11.16.2.16.29s-.05.19-.16.3l-.24.25c-.25.24-.48.47-.75.73zM9.6 4.76c.52.5.87 1.17.99 1.88.05.31.32.54.64.54h.1c.34-.05.57-.38.52-.74-.18-.97-.64-1.86-1.34-2.57-.71-.72-1.6-1.19-2.58-1.35a.61.61 0 0 0-.49.1c-.14.09-.23.24-.26.41-.03.17 0 .34.1.48.1.14.26.24.43.26.72.13 1.38.48 1.89.99z"/><path class="st0" d="M12.2 2.15A7.577 7.577 0 0 0 8.06.01c-.18-.04-.35 0-.49.1-.13.1-.22.24-.26.41-.04.17 0 .35.1.49s.25.23.42.26c1.32.23 2.52.85 3.47 1.8.95.97 1.58 2.17 1.8 3.47.05.3.31.52.59.52H13.84c.33-.06.56-.39.51-.74a7.61 7.61 0 0 0-2.15-4.17z"/></svg>