<svg role="img" focusable="false" id="Layer_1" data-name="Layer 1" xmlns="http://www.w3.org/2000/svg" viewBox="0 0 2389.41 1327.68">
  <title>Diagram showing the various areas of the brain and their responsibilities.</title>
  <defs><style>.cls-1{fill:#e1ebf9;}.cls-10,.cls-2{fill:#fff;}.cls-3{fill:#768c9d;}.cls-4{fill:#d5e4e3;}.cls-5{font-size:39.09px;fill:#5e5e5e;font-family:Karla;font-weight:700;}.cls-6{font-size:28.07px;font-family:Karla;font-weight:400;}.cls-7{letter-spacing:-0.04em;}.cls-8{letter-spacing:0em;}.cls-9{letter-spacing:-0.08em;}.cls-10{stroke:#4e66a2;stroke-miterlimit:10;stroke-width:3.05px;}.cls-11{fill:#2f5b8d;}.cls-12{font-size:68.07px;fill:#4e66a2;font-family:BrandonText;font-weight:800;}.cls-13{letter-spacing:-0.03em;}.cls-14{letter-spacing:-0.01em;}.cls-15{letter-spacing:0em;}.cls-16{letter-spacing:-0.01em;}</style></defs><title>brain diagram</title><rect class="cls-1" x="-0.02" width="2389.43" height="1325.68"/><circle class="cls-2" cx="667.9" cy="675.46" r="603.89"/><path class="cls-3" d="M504.51,1190.67H493v-34.59c-5.09-102.54-49.49-145.38-75.52-161.79-31.37-19.78-39.56-21.55-63.86-26.81-6.77-1.47-15.21-3.29-25.61-5.83-4.65-1.14-9.32-2.22-14-3.3-19.72-4.56-40.11-9.28-58.87-18.27-27.28-13.08-46.22-34-52-57.4-6-24.3,4.15-49.45,13.07-71.65,1.3-3.22,2.59-6.42,3.81-9.57a26.09,26.09,0,0,0-2.46-23.35,57.56,57.56,0,0,0-4.17-5.37,52.91,52.91,0,0,1-6.32-8.71,30.43,30.43,0,0,1-.44-27.93,32.38,32.38,0,0,1,10.61-11.55,27.65,27.65,0,0,1-7.43-8.79c-5.51-10.34-4.64-20.72,2.21-26.44,11.18-9.36,20.68-18,23.55-29.36a20.85,20.85,0,0,0,.06-10.92c-10.79-7.23-22.69-15.49-31.22-26.84-10.47-13.94-13.75-31-8.55-44.59s17.3-22,27.05-28.78c8-5.63,16.38-10.94,24.45-16.08,22.47-14.31,43.69-27.83,59.67-47.91,12.68-15.92,19.6-35.1,26.92-55.4,3-8.24,6-16.76,9.51-25,17.33-41,45.23-75.84,72.2-109.58,30.26-37.84,87-73.53,103.65-83.57,85.47-51.48,154.81-53.17,230.19-50.16,86.63,3.47,170,31.2,234.87,78.09,45.49,32.9,84.08,77.25,111.59,128.26s43.38,107.61,45.89,163.69-8.24,113.89-31.09,167.15-57.32,100.87-99.69,137.71c-36.3,31.55-58.19,53.36-90.09,89.74-56,63.9-68.75,161.68-30.9,237.78l-10.29,5.12c-39.87-80.17-26.48-183.16,32.55-250.48,32.29-36.82,54.45-58.89,91.19-90.83,41.08-35.71,74.5-81.9,96.67-133.57s32.6-107.73,30.17-162.1S1112.62,422.45,1085.93,373s-64.11-92.51-108.21-124.4c-63-45.58-144.2-72.54-228.6-75.92-89.09-3.56-148.17,3-223.81,48.52-16.25,9.79-71.53,44.55-100.6,80.91C398.23,335.2,370.84,369.46,354.12,409c-3.35,7.92-6.37,16.29-9.28,24.39C337.52,453.62,330,474.59,316.1,492c-17.18,21.59-40.21,36.26-62.49,50.45-8,5.08-16.19,10.32-24,15.8-10.4,7.27-19.3,14.06-22.91,23.48-4.54,11.85.64,25.11,7,33.57,7.84,10.43,19.22,18,30.22,25.4a5.77,5.77,0,0,1,2.31,3.15c2.06,7,2.23,12.45.58,18.94-4,15.86-17.48,27.12-27.31,35.35-2.83,2.36-1.69,8,.56,12.23a16.61,16.61,0,0,0,12.6,8.5,5.74,5.74,0,0,1,.18,11.4c-6,.82-13.24,5.86-15.84,11a19.07,19.07,0,0,0,.26,17.25,44,44,0,0,0,5.05,6.83,68.75,68.75,0,0,1,5,6.46,37.81,37.81,0,0,1,3.55,33.79c-1.24,3.2-2.54,6.44-3.86,9.71-8.68,21.59-17.65,43.92-12.57,64.62,4.92,20,21.6,38.19,45.76,49.78,17.63,8.45,37.39,13,56.5,17.44,4.72,1.09,9.43,2.18,14.12,3.33,10.26,2.5,18.26,4.23,25.32,5.76,25.08,5.43,34.47,7.46,67.56,28.32,30.08,19,52.31,49.16,66.1,89.74,8.24,24.23,13.34,52.37,14.77,81.35v35Z"/><path class="cls-3" d="M300.83,426.79,294,424.62c.87-2.76,1.79-5.54,2.73-8.27l6.79,2.33C302.59,421.36,301.69,424.08,300.83,426.79Zm5.54-16.14-6.73-2.49c1-2.7,2.05-5.43,3.12-8.13l6.67,2.65C308.38,405.33,307.35,408,306.37,410.65Zm6.3-15.86-6.6-2.8c1.12-2.64,2.29-5.32,3.49-8l6.54,3C314.93,389.57,313.77,392.2,312.67,394.79Zm7-15.54-6.47-3.11c1.25-2.61,2.55-5.23,3.86-7.8l6.4,3.26C322.21,374.12,320.94,376.7,319.71,379.25Zm7.75-15.2-6.32-3.41c1.37-2.53,2.78-5.09,4.22-7.61l6.24,3.55C330.19,359.05,328.8,361.56,327.46,364.05Zm8.44-14.84-6.15-3.69c1.48-2.47,3-5,4.55-7.41l6.08,3.84C338.86,344.35,337.35,346.79,335.9,349.21ZM345,334.78l-6-4c1.6-2.41,3.25-4.83,4.89-7.19l5.89,4.11C348.2,330.05,346.58,332.42,345,334.78Zm9.76-14L349,316.54c1.69-2.32,3.45-4.66,5.21-7l5.7,4.37C358.16,316.21,356.44,318.51,354.77,320.78Zm10.39-13.54-5.6-4.5c1.81-2.25,3.67-4.51,5.53-6.72l5.49,4.63C368.76,302.81,366.93,305,365.16,307.24Zm11-13.06-5.39-4.75c1.91-2.16,3.87-4.33,5.83-6.46l5.28,4.87C379.94,289.93,378,292.06,376.15,294.18Zm11.58-12.54-5.17-5c2-2.08,4.07-4.16,6.12-6.19l5.05,5.11C391.72,277.56,389.7,279.6,387.73,281.64Zm12.13-12-4.93-5.22c2.1-2,4.25-4,6.4-5.9l4.81,5.34C404,265.76,401.91,267.71,399.86,269.64Zm12.68-11.42-4.68-5.44c2.21-1.9,4.45-3.79,6.66-5.6l4.55,5.55C416.9,254.51,414.7,256.36,412.54,258.22Zm13.19-10.82-4.42-5.66c2.31-1.8,4.63-3.57,6.92-5.27l4.29,5.76C430.28,243.9,428,245.64,425.73,247.4Zm13.69-10.18-4.15-5.86c2.35-1.67,4.77-3.33,7.16-5l4,6C444.09,234,441.73,235.58,439.42,237.22Z"/><path class="cls-3" d="M928.79,972.65l-6.25-3.54c1.42-2.5,2.9-5,4.41-7.52l6.14,3.73C931.62,967.74,930.17,970.21,928.79,972.65Zm8.83-14.54-6-3.91c1.56-2.4,3.19-4.84,4.84-7.24l5.92,4.07C940.73,953.37,939.14,955.76,937.62,958.11Zm9.65-14-5.8-4.22c1.67-2.29,3.42-4.64,5.2-7l5.71,4.36C950.62,939.53,948.91,941.83,947.27,944.07Zm10.37-13.54L952,926c1.82-2.26,3.65-4.5,5.52-6.72l5.5,4.62Q960.32,927.2,957.64,930.53Zm11-13.1-5.41-4.72q2.87-3.27,5.78-6.49L974.3,911Q971.42,914.22,968.61,917.43Zm11.48-12.68-5.24-4.91q3-3.17,6-6.28l5.16,5Q983,901.63,980.09,904.75ZM992,892.43l-5.1-5.06q3.06-3.07,6.14-6.11l5,5.12Q995,889.38,992,892.43Zm12.23-12-5-5.18,1.52-1.45c1.58-1.51,3.16-3,4.75-4.51l4.93,5.22-4.72,4.48Zm12.49-11.78-4.89-5.27q3.16-2.94,6.35-5.85l4.86,5.29Q1019.85,865.7,1016.71,868.63ZM1029.38,857l-4.83-5.31,6.4-5.79,4.81,5.33Zm12.78-11.53-4.8-5.34,6.41-5.76,4.8,5.35ZM1055,834l-4.81-5.33c2.14-1.92,4.26-3.85,6.39-5.77l4.82,5.32Q1058.19,831.07,1055,834Zm12.79-11.59-4.85-5.3q3.18-2.89,6.33-5.81l4.88,5.27Zm12.68-11.73-4.91-5.24q3.14-2.94,6.23-5.9l5,5.19Q1083.61,807.67,1080.45,810.63Zm12.51-12-5-5.14q3.07-3,6.11-6l5.07,5.08Q1096.06,795.65,1093,798.67Z"/><path class="cls-3" d="M462.46,1121.1q-1-4.17-2-8.33l7-1.76q1.06,4.2,2.07,8.4Zm-4.21-16.61c-.79-2.91-1.55-5.6-2.32-8.21l6.88-2c.79,2.67,1.57,5.41,2.37,8.38Zm-4.86-16.33c-.91-2.75-1.85-5.44-2.8-8l6.73-2.5c1,2.64,2,5.42,2.89,8.25Zm-5.92-15.87c-1.1-2.61-2.27-5.2-3.47-7.68l6.46-3.13c1.26,2.59,2.48,5.29,3.63,8Zm-7.34-15.15c-1.38-2.48-2.83-4.91-4.3-7.2l6-3.88c1.56,2.42,3.08,5,4.54,7.59Zm-9.05-14.08c-1.68-2.25-3.44-4.44-5.23-6.49l5.4-4.72c1.92,2.19,3.8,4.52,5.58,6.92Zm-11-12.52c-2-1.89-4.05-3.75-6.21-5.52l4.55-5.56c2.31,1.9,4.55,3.89,6.66,5.92ZM407.26,1020c-2.22-1.55-4.58-3.09-7-4.56l3.71-6.14c2.57,1.55,5.07,3.17,7.43,4.82Zm-14.34-8.68c-2.41-1.26-4.95-2.52-7.57-3.73l3-6.52c2.72,1.26,5.38,2.57,7.89,3.9Zm-15.33-7.12c-2.5-1-5.16-2.08-7.91-3.1l2.51-6.73c2.83,1.06,5.57,2.13,8.14,3.19Zm-15.93-6c-2.7-.93-5.4-1.82-8.11-2.7l2.2-6.83q4.13,1.34,8.24,2.74Zm-16.29-5.27c-2.75-.84-5.49-1.68-8.22-2.5l2.08-6.87c2.74.83,5.5,1.66,8.26,2.51Z"/><path class="cls-4" d="M670.74,501.29h0a8.72,8.72,0,0,0,4.41-.44l34.88-13a8.71,8.71,0,0,0,5.57-9.6c-2.92-17.33-7.77-63.38,14.34-99.3,27.8-45.16,39.62-32.64,42.7-52.21s33.45-17.31,54.5-31.55c20-13.51,63.41-25.58,69.41-53.83a8.81,8.81,0,0,0-2.13-7.84c-18.6-20-46.36-32.66-67-27.95-21.65,5-20.15,24.42-21.21,31.15s-9.76,18.21-13.74,17.59-17.11-16.8-24.65-12.66-26.23,11.23-39,40.57-17.8,35.45-26.44,42.55-25.71,17.9-28.24,42,10,39.82,5.17,64.76c-4.24,21.7-6.42,36.36-15.32,57.88A8.71,8.71,0,0,0,670.74,501.29Z"/><path class="cls-4" d="M1097.41,466.26c-3.63,13.13-49.25,26.1-73.61,57.38s-35.54,22.62-49.61,20.41S944.14,519.88,917,505s-30.09,4-40-12.85c-7.5-12.76-39.94-11.4-55.18-10a50.55,50.55,0,0,1-15.13-.88c-11.24-2.4-33.86-5.58-54.25,1.52-28.52,9.93-25.09,4.08-25.09,4.08s-19.21-52.33,3-94.71,46.82-45.93,49.66-54.26-6-16,22.53-25.92,97.19-39.88,100.6-57.53,10.29-21.58,26.65-14c12.13,5.63,30.45,15.68,37.87,28.47A45.29,45.29,0,0,0,990,288a66.36,66.36,0,0,1,24.35,17c18.68,20.72,23.16,32.09,20.37,49.83s23.06,4.88,25.65,32.25S1103.23,445.23,1097.41,466.26Z"/><path class="cls-4" d="M1115.38,588.5c-.34-3.47-1-6.89.24-10.17,5.88-16.17,2.51-43.11-7.24-60.76a16,16,0,0,1,1.45-17.13c7.77-10.58.51-28.07-4-27.57-5.74.63-54.65,32.5-66.08,41.36s-33.85,39.82-33.85,39.82c-9.17,12.15,14,30.42-7.84,45.79s-2.07,41-3.58,54.61-38.86,15.83-36.18,30.67c2.13,11.81,26.25,17.55,43.51,20a43.26,43.26,0,0,1,20.29,8.54c27.87,21.32,30.32,4.45,45.47,6.26,16.62,2,18.86-32.15,26.52-41C1094,678.91,1118.52,620.67,1115.38,588.5Z"/><path class="cls-4" d="M823.45,489a10.39,10.39,0,0,0-9.18,14.61c9.21,20.86,29.7,59.53,56.07,62.86,36.27,4.58,29.07,18.49,51.22,13.2s67.4-19.86,56.83-25.41-36.2-18-42.31-27-35-23.52-53.2-16.3a9.54,9.54,0,0,0-1.38.72c-8.27,4.94-5.09-8.86-11.5-14.76C864.89,492.21,842.15,488.53,823.45,489Z"/><path class="cls-4" d="M653.08,509.68a25.84,25.84,0,0,0-3.52,0c-8.58.62-42.09,4.88-64.06,34-25.36,33.63-35.81,60.2-35.45,77.81s12.61,31.46,22,31.68-5.6,49,54.58,53.38a22.13,22.13,0,0,0,4.07,0c16.07-1.85,26.57,16.79,40.88,7.43,14.67-9.59,14.48-20.28,39.27-14.5s64.67,11.43,75.51-5.67,22.22,2.24,32.2-9.35,15.13,7.4,33.1.82c15.61-5.72,45.21,14,60.11,3.53a24.11,24.11,0,0,1,19.81-3.59c8.13,2.1,17.65,3,22.76-4.87a27,27,0,0,1,3.24-4.2,56.84,56.84,0,0,1,19-12.73c10.76-4.65,15.41-5,13.5-14s-13.06-28.6-7.53-39.85,16.2-10.83,17.73-18.11,5.28-28.43-4-29.47S926,592.88,908.64,588.7s-15.18-13.8-45-15.41c-8.58.07-29.23-16.14-36.22-27.48s-26.91-56.07-26.91-56.07-2.39-8.73-23-5.09-45.06,12.76-55.39,12-28.56,6.16-36.6,9.49C677.63,509.36,670.65,511,653.08,509.68Z"/><path class="cls-4" d="M688.2,708.06c-11.32,5.91-13.65,18.59-16,31.15-4.33,23.48-2.08,68.13,35.5,77.59,7.34,1.16,29.69-9.38,30.14,1.67s10.94,16.14,15.92,26.33,8.05,68.36,21.72,77.09,34.64,7,36.45-6.49,20-53.59-6.45-66.53c-6.73-3.29-44.72-24.6-47-37.82s-17.53-30-4.31-42.37-24-16.64-24.31-30.79S728.43,709.14,718,707.5C710.49,706.31,701.26,701.23,688.2,708.06Z"/><path class="cls-4" d="M737.63,712.47s-2.52,20,2.31,25.13,29.42,10.27,26,24.15-10.47,18.73-6.5,29.39,12.12,34.51,43.68,45.12,32.13,22.93,53.16,22.79c19.1-.13,101.66-11.47,148.84-61.81a63.5,63.5,0,0,0,16.13-30,9.75,9.75,0,0,1,3-5.61c5.1-4.52,12.53-9.94,12.88-16.15s15-11.44,8.08-13.46-21.92-2-31-14.29-5.45-5.24-22.26-6-29-7.07-33.72-12.83-24.06,1.54-34.29-9.16c-1.78-2.64-5.94,7.84-10.56,9.31s-33.68-3.11-41-6.15-15.08,4.21-25.65,1.61-15.82-9.06-24.61-5A47.85,47.85,0,0,1,798,693.44c-5.87-.61-12.79,21.5-24.11,19.72S736.69,704.48,737.63,712.47Z"/><text class="cls-5" transform="translate(1876.24 367.57)">6. Brain stem<tspan class="cls-6"><tspan x="0" y="40.1">consciousness,</tspan><tspan x="0" y="80.19">breathing, heart rate</tspan></tspan><tspan x="0" y="200.48">7. Parietal lobe</tspan><tspan class="cls-6"><tspan x="0" y="240.57">sensations, language, perception,</tspan><tspan x="0" y="280.67">body awareness, attention</tspan></tspan><tspan x="0" y="400.96">8. Occipital Lobe</tspan><tspan class="cls-6"><tspan x="0" y="441.05">vision, perception</tspan></tspan><tspan x="0" y="561.34">9. </tspan><tspan class="cls-7" x="42.14" y="561.34">W</tspan><tspan class="cls-8" x="78.3" y="561.34">ernicke’s area</tspan><tspan class="cls-6"><tspan x="0" y="601.43">language comprehension</tspan></tspan><tspan x="0" y="721.72">10. Cerebellum</tspan><tspan class="cls-6"><tspan x="0" y="761.81">posture, balance, coordination</tspan><tspan x="0" y="801.91">of movement</tspan></tspan></text><text class="cls-5" transform="translate(1351.45 367.57)">1. Motor area<tspan class="cls-6"><tspan x="0" y="40.1" xml:space="preserve">control of  voluntary muscles</tspan></tspan><tspan x="0" y="160.38">2. Sensory area</tspan><tspan class="cls-6"><tspan x="0" y="200.48">skin sensations</tspan></tspan><tspan x="0" y="320.76">3. Frontal lobe</tspan><tspan class="cls-6"><tspan x="0" y="360.86">movement, problem solving,</tspan><tspan x="0" y="400.96">concentration, thinking,</tspan><tspan x="0" y="441.05">behaviour, personality, mood</tspan></tspan><tspan x="0" y="561.34">4. Broca’s area</tspan><tspan class="cls-6"><tspan x="0" y="601.43">speech control</tspan></tspan><tspan x="0" y="721.72">5. </tspan><tspan class="cls-9" x="41.05" y="721.72">T</tspan><tspan x="58.6" y="721.72">emporal lobe</tspan><tspan class="cls-6"><tspan x="0" y="761.81">hearing, language, memory </tspan></tspan></text><path class="cls-4" d="M604,508.4s.93,3.06,1,3.06c14.27.57,22.52-9.67,36.21-11.3a14.59,14.59,0,0,0,10.93-7.7c8.78-16,21.36-44.34,18.18-76.84-.78-7.89-9.83-12.45-17.09-8.62-13.5,7.11-32.26,17.1-46.73,25.23C584.51,444.57,599.17,493.76,604,508.4Z"/><path class="cls-4" d="M787.85,204.75c-10.37-2.64-21.75-4.14-27.92-.41-12.29,7.43-19.6-13.34-56.4-2.35a17.2,17.2,0,0,1-13.85-1.94c-13.16-8-46.46-14.34-102.91,21.33A17.17,17.17,0,0,1,576.64,224c-21.39-1.22-45.22,10.18-63.5,30.49-19.76,22-45.38,37.38-59.13,49-13.23,11.2-28.86,19.12-33.83,58.28a17.13,17.13,0,0,1-3.42,8.22c-11.39,14.93-28.17,47.13-16.61,78.81A17.45,17.45,0,0,1,401,457c-1.65,13.59.57,31.92,8.47,43.32a17.86,17.86,0,0,1,3.22,8.38c1.17,11.69,6.8,36.12,28.51,40.93a16.77,16.77,0,0,1,11.49,8.95c8.56,17.39,17.16,24.16,40,28.86a342.73,342.73,0,0,1,37,10.14,17.16,17.16,0,0,0,21.45-10.22c7.08-18.75,22.25-49.68,50.1-69-6.38-15.77-28.06-74.58-2.66-88.91,24.31-13.71,59.14-32.09,70.49-38.06-.15-.46-.29-.92-.44-1.39-16.74-49,34.42-67.31,36.54-80.77s9.77-20.41,18.5-30.95c7.51-9.07,24.41-52,53.36-40.7,10.59,4.14,22.28-2.44,23.67-13.73,0-.1,0-.19,0-.28A17.1,17.1,0,0,0,787.85,204.75Z"/><circle class="cls-10" cx="874.38" cy="421.57" r="27.31"/><circle class="cls-10" cx="1062.92" cy="617.53" r="27.31"/><circle class="cls-10" cx="901.7" cy="542.02" r="27.31"/><circle class="cls-10" cx="881.51" cy="773.65" r="27.31"/><circle class="cls-10" cx="819.75" cy="364.05" r="27.31"/><circle class="cls-10" cx="709.66" cy="773.65" r="27.31"/><circle class="cls-10" cx="660.09" cy="626" r="27.31"/><circle class="cls-10" cx="632.78" cy="458.55" r="27.31"/><circle class="cls-10" cx="819.75" cy="258.52" r="27.31"/><circle class="cls-10" cx="473.75" cy="501.4" r="27.31"/><path class="cls-11" d="M464.65,510.42l2.45-2.74a.78.78,0,0,1,1.06-.08,6.9,6.9,0,0,0,4.61,1.92,3.32,3.32,0,0,0,3.64-3.35c0-2.08-1.88-3.43-5-3.43h-2.37a.8.8,0,0,1-.78-.77v-3.51a.78.78,0,0,1,.78-.78h2.37c2.94,0,4.49-1.39,4.49-3.18a3.07,3.07,0,0,0-3.35-3.19A4.84,4.84,0,0,0,468.9,493a.79.79,0,0,1-1.15.08l-2.57-2.53a.78.78,0,0,1,0-1.1,10.94,10.94,0,0,1,8-3.72c4.9,0,9.1,3,9.1,7.72a7.48,7.48,0,0,1-4.32,6.45v.16a7.12,7.12,0,0,1,5.06,6.78c0,4.57-4,8.28-9.8,8.28-5.3,0-7.75-2.53-8.65-3.63A.85.85,0,0,1,464.65,510.42Z"/><path class="cls-11" d="M619.08,466.28v-3.64a1.92,1.92,0,0,1,.57-1.51l14.12-16.85a.7.7,0,0,1,.61-.25h3a.82.82,0,0,1,.82.82v17h3.35a.75.75,0,0,1,.81.77v3.64a.81.81,0,0,1-.81.81h-3.35v5.1a.82.82,0,0,1-.77.82H633a.82.82,0,0,1-.78-.82v-5.1H619.89A.81.81,0,0,1,619.08,466.28Zm6.57-4.25h6.61v-8h-.08L625.65,462Z"/><path class="cls-11" d="M819.69,372.35H827a.82.82,0,0,1,.82.82v3.75a.82.82,0,0,1-.82.82H810.18a.78.78,0,0,1-.77-.82v-.33c0-.4,0-.49.53-1.18,2.69-3.59,8.28-11.18,10.61-14.73a6.3,6.3,0,0,0,1.06-3.15c0-1.63-1.35-3.06-3.67-3.06a6,6,0,0,0-4.08,2.12.84.84,0,0,1-1.19,0L810.1,354a.81.81,0,0,1,0-1.1,11.28,11.28,0,0,1,8.41-4.12c6,0,9.55,3.83,9.55,8.49a10.33,10.33,0,0,1-1.63,5.43c-1.31,2.36-4.74,6.81-6.7,9.59Z"/><path class="cls-11" d="M877.76,412h-9.68a.81.81,0,0,1-.81-.78v-3.79a.81.81,0,0,1,.81-.78h17.84a.63.63,0,0,1,.7.61v.17a1.2,1.2,0,0,1-.17.65L874,434a1.71,1.71,0,0,1-1.71,1.22h-4.16a.8.8,0,0,1-.86-.81,2,2,0,0,1,.24-1l10.21-21.35Z"/><path class="cls-11" d="M817.2,253.19h-4a.77.77,0,0,1-.73-.81v-2.66a.79.79,0,0,1,.24-.61l5.47-4.29a2.41,2.41,0,0,1,1.47-.49h3.06a.81.81,0,0,1,.78.78v27a.82.82,0,0,1-.78.82H818a.8.8,0,0,1-.82-.82Z"/><path class="cls-11" d="M895.27,551.42c2-.65,7.43-2.49,8.45-6.69a12.53,12.53,0,0,1-4,.86c-4,0-8.37-2.94-8.37-9.15a9.68,9.68,0,0,1,9.64-9.63c6.49,0,10.12,4.9,10.12,11.43,0,12.37-9.72,17.06-14.12,18.29a1,1,0,0,1-1.31-.66l-1.23-3.22C894.29,552.12,894.41,551.67,895.27,551.42Zm9.84-14.77a4,4,0,1,0-8.08,0,4,4,0,1,0,8.08,0Z"/><path class="cls-11" d="M650.83,635.58l2.57-2.7a.87.87,0,0,1,1.1,0,7.29,7.29,0,0,0,5,2,3.91,3.91,0,0,0,4-4c0-2.57-1.63-4-4.37-4H652.7a1.41,1.41,0,0,1-1.3-1.51v-13a.76.76,0,0,1,.77-.77h13.55a.81.81,0,0,1,.82.77V616a.82.82,0,0,1-.82.77h-8.65v4.53h3c5.8,0,9.59,3.68,9.59,9.31s-4.49,9.88-10.41,9.88A10.94,10.94,0,0,1,651,637C650.38,636.35,650.34,636.07,650.83,635.58Z"/><path class="cls-11" d="M712.52,758.16a1,1,0,0,1,1.31.66l1.22,3.26c.16.49,0,.94-.81,1.23-2,.61-7.43,2.73-8.45,6.77a11.47,11.47,0,0,1,4-.85c4,0,8.36,2.89,8.36,9.1a9.67,9.67,0,0,1-9.63,9.63c-6.49,0-10.12-4.86-10.12-11.43C698.4,764.16,708.64,759.31,712.52,758.16Zm-4.08,24a4.07,4.07,0,0,0,0-8.13,4.07,4.07,0,0,0,0,8.13Z"/><path class="cls-11" d="M866.69,767.8h-4a.78.78,0,0,1-.73-.82v-2.65a.77.77,0,0,1,.24-.61l5.47-4.29a2.35,2.35,0,0,1,1.47-.49h3.06a.81.81,0,0,1,.78.78v27a.81.81,0,0,1-.78.81h-4.65a.8.8,0,0,1-.82-.81Z"/><path class="cls-11" d="M878.86,773.23c0-9.23,3.87-14.7,10.73-14.7s10.78,5.47,10.78,14.7-3.92,14.69-10.78,14.69S878.86,782.41,878.86,773.23Zm15.1,0c0-5.51-1.8-8.74-4.37-8.74s-4.33,3.23-4.33,8.74,1.8,8.77,4.33,8.77S894,778.78,894,773.23Z"/><path class="cls-11" d="M1057.76,617.32v-.16c-2.25-1.27-4.33-3.14-4.33-6.45,0-4.73,4.2-7.71,9.31-7.71,5.34,0,9.55,3,9.55,7.71,0,3.18-2.25,5.31-4.33,6.41v.2c2.41,1,5.14,3.43,5.14,7.07,0,5-4,8-10.36,8-6.09,0-10.13-3-10.13-8C1052.61,620.67,1055.68,618.14,1057.76,617.32Zm5.14,9.92a3.13,3.13,0,0,0,3.39-3.18c0-1.55-1.19-3.1-3.47-3.84-2.17.74-3.39,2.29-3.39,3.84C1059.43,625.94,1060.74,627.24,1062.9,627.24Zm2.94-16.28a3,3,0,0,0-6,0c0,1.51,1,2.69,2.94,3.42C1064.82,613.69,1065.84,612.38,1065.84,611Z"/><text class="cls-12" transform="translate(1345.08 205.3)"><tspan class="cls-13">F</tspan><tspan x="35.67" y="0">unctional a</tspan><tspan class="cls-14" x="362.04" y="0">r</tspan><tspan x="387.16" y="0">eas </tspan><tspan class="cls-15" x="501.04" y="0">o</tspan><tspan x="537.38" y="0">f the b</tspan><tspan class="cls-16" x="735.46" y="0">r</tspan><tspan x="760.98" y="0">ain</tspan></text></svg>